<?xml version="1.0" standalone="no"?>
<!DOCTYPE svg PUBLIC "-//W3C//DTD SVG 20010904//EN"
 "http://www.w3.org/TR/2001/REC-SVG-20010904/DTD/svg10.dtd">
<svg version="1.0" xmlns="http://www.w3.org/2000/svg"
 width="512.000000pt" height="512.000000pt" viewBox="0 0 512.000000 512.000000"
 preserveAspectRatio="xMidYMid meet">
<metadata>
Created by potrace 1.11, written by Peter Selinger 2001-2013
</metadata>
<g transform="translate(0.000000,512.000000) scale(0.100000,-0.100000)"
fill="#000000" stroke="none">
<path d="M0 2560 l0 -2560 2560 0 2560 0 0 2560 0 2560 -2560 0 -2560 0 0
-2560z m1385 1293 c175 -390 371 -824 436 -966 l116 -257 438 965 439 965 353
0 353 0 0 -1975 0 -1975 -375 0 -375 0 -2 1174 -3 1174 -300 -624 -299 -624
-225 2 -224 3 -301 627 -301 627 -3 -1180 -2 -1179 -375 0 -375 0 0 1975 0
1975 353 0 353 0 319 -707z m3415 -1268 l0 -1975 -375 0 -375 0 0 1975 0 1975
375 0 375 0 0 -1975z"/>
</g>
</svg>
